<?xml version="1.0" standalone="no"?>
<!DOCTYPE svg PUBLIC "-//W3C//DTD SVG 20010904//EN"
 "http://www.w3.org/TR/2001/REC-SVG-20010904/DTD/svg10.dtd">
<svg version="1.0" xmlns="http://www.w3.org/2000/svg"
 width="1200.000000pt" height="1200.000000pt" viewBox="0 0 1200.000000 1200.000000"
 preserveAspectRatio="xMidYMid meet">

<g transform="translate(0.000000,1200.000000) scale(0.100000,-0.100000)"
fill="#000000" stroke="none">
<path d="M5903 7726 c-159 -52 -261 -213 -276 -437 -3 -50 -9 -71 -26 -88 -17
-17 -21 -33 -21 -88 0 -83 15 -115 58 -128 29 -8 32 -13 32 -50 0 -63 28 -157
56 -186 l25 -26 -58 -36 c-32 -19 -70 -48 -85 -64 l-27 -29 77 -80 c42 -45 94
-109 115 -143 l37 -61 -102 102 c-238 238 -471 333 -702 287 -31 -7 -55 -15
-53 -18 16 -29 46 -101 51 -123 9 -40 -8 -34 -23 7 -19 54 -103 139 -163 165
-47 20 -64 22 -182 18 -170 -5 -209 -21 -248 -99 -15 -30 -31 -79 -36 -109
l-9 -55 -7 46 c-14 84 22 160 108 225 34 26 49 50 85 135 87 208 168 334 233
367 37 19 37 20 18 37 -30 27 -24 40 6 16 36 -28 53 -26 102 9 40 29 54 61 32
75 -5 3 -10 14 -10 23 0 11 9 5 30 -18 32 -39 38 -60 15 -60 -24 0 -17 -20 11
-30 43 -17 79 -12 103 14 25 27 23 38 -24 111 -29 45 4 15 43 -38 l32 -45 -20
-25 c-27 -34 -26 -37 18 -37 32 0 41 5 50 25 17 36 15 53 -10 94 l-22 36 23
-20 c13 -11 32 -32 43 -47 18 -26 18 -29 3 -58 l-16 -31 33 3 c25 2 35 9 42
30 10 28 4 47 -31 98 -10 16 -1 10 25 -15 23 -21 42 -47 42 -58 0 -10 -12 -34
-27 -54 -25 -32 -30 -34 -65 -29 -21 3 -38 2 -38 -3 0 -5 -17 -7 -38 -4 -34 4
-42 1 -60 -22 -35 -44 -29 -63 21 -70 54 -8 95 7 107 41 9 23 14 25 43 20 17
-3 37 -2 43 2 20 13 74 95 74 112 0 17 -133 220 -152 231 -25 16 -123 19 -218
9 -108 -12 -193 -38 -226 -69 -11 -10 -60 -35 -110 -56 -173 -74 -416 -236
-618 -411 -124 -107 -195 -228 -217 -369 -8 -45 -17 -67 -40 -89 -79 -78 15
-212 187 -266 69 -21 192 -40 261 -40 90 0 30 -15 -80 -20 l-111 -5 70 -56
c104 -85 219 -159 304 -196 198 -86 371 -68 499 52 48 45 128 151 120 159 -2
2 -26 0 -54 -4 -27 -5 -108 -9 -180 -9 -157 -1 -269 22 -360 74 -57 33 -105
68 -105 78 0 2 57 -16 128 -39 164 -56 257 -75 362 -76 94 -1 146 15 192 59
l26 25 35 -73 c20 -42 53 -147 77 -243 67 -271 130 -435 213 -558 25 -38 42
-68 38 -68 -16 0 -108 107 -144 166 -56 93 -113 244 -158 420 -22 87 -41 160
-43 161 -2 2 -15 -14 -30 -36 -15 -22 -45 -52 -67 -67 -44 -30 -48 -50 -28
-146 31 -157 169 -469 259 -588 23 -30 50 -70 60 -90 121 -237 100 -763 -41
-1042 l-29 -58 820 0 820 0 -29 58 c-70 137 -111 329 -118 552 -8 261 34 444
132 575 65 86 186 331 229 462 20 62 39 143 42 180 l6 69 -41 28 c-22 16 -54
48 -69 71 l-28 43 -42 -164 c-66 -265 -142 -431 -246 -541 -56 -61 -81 -71
-37 -15 78 97 173 344 241 622 18 74 48 168 67 209 l33 75 33 -32 c46 -44 80
-54 182 -54 103 0 241 29 398 85 53 20 97 33 97 31 0 -3 -12 -16 -27 -29 -47
-41 -164 -94 -241 -110 -78 -16 -287 -19 -379 -6 -29 4 -53 4 -53 0 0 -14 88
-126 130 -163 132 -118 316 -128 525 -26 79 38 221 135 300 204 l40 35 -100 1
c-103 1 -184 18 -93 19 73 1 194 20 262 41 173 54 265 186 186 268 -22 23 -32
47 -39 89 -19 118 -86 248 -167 324 -186 176 -517 396 -702 469 -30 11 -61 27
-69 35 -25 25 -69 44 -140 61 -72 17 -251 24 -293 12 -17 -5 -48 -41 -98 -115
-39 -59 -72 -115 -72 -123 0 -18 29 -67 59 -97 16 -17 28 -21 56 -16 31 5 36
3 45 -21 12 -34 53 -49 108 -41 49 7 55 26 20 70 -18 23 -26 26 -60 22 -21 -3
-38 -1 -38 4 0 5 -17 6 -39 3 -35 -6 -41 -3 -65 28 -35 47 -33 67 14 113 46
45 51 43 15 -5 -40 -54 -25 -110 29 -110 l27 0 -17 29 c-16 28 -16 30 4 58 24
34 52 59 52 47 0 -5 -7 -18 -15 -28 -18 -24 -19 -47 -3 -81 9 -20 18 -25 50
-25 44 0 45 3 18 37 l-20 25 32 45 c50 69 64 74 28 9 l-34 -59 28 -23 c29 -25
74 -31 107 -14 23 13 25 30 4 30 -24 0 -17 24 15 55 17 16 30 24 30 17 0 -6
-4 -14 -10 -17 -24 -15 -9 -51 34 -77 52 -33 65 -34 100 -7 30 24 36 11 6 -16
-19 -17 -19 -18 18 -37 65 -33 140 -149 227 -353 26 -60 57 -118 68 -128 54
-45 100 -93 113 -120 20 -37 28 -116 16 -146 -8 -22 -9 -19 -15 26 -5 48 -18
83 -52 144 -25 45 -84 62 -231 67 -118 4 -135 2 -182 -18 -60 -26 -144 -111
-163 -165 -7 -19 -17 -35 -21 -35 -12 0 0 46 27 106 l23 52 -56 11 c-228 46
-464 -51 -699 -286 l-103 -103 38 62 c20 34 72 97 114 142 l77 80 -27 29 c-15
16 -53 45 -85 64 l-58 36 20 21 c31 33 52 93 58 167 5 63 8 69 28 69 41 0 60
35 64 121 3 73 2 79 -23 102 -22 21 -26 33 -26 84 0 174 -101 353 -237 419
-65 32 -166 41 -230 20z m79 -2083 c19 -134 41 -176 121 -230 153 -103 352
-40 435 137 14 30 42 75 63 98 22 26 42 61 48 85 l9 42 1 -47 c1 -67 -24 -127
-128 -297 -86 -141 -91 -152 -91 -205 0 -31 3 -56 8 -56 17 0 82 62 111 107
25 38 31 42 31 24 0 -35 -28 -87 -76 -140 l-44 -49 0 -83 0 -82 22 19 c11 10
34 39 50 63 19 31 28 39 28 25 -1 -31 -36 -101 -85 -164 -35 -45 -45 -67 -45
-96 0 -34 1 -36 18 -22 24 21 52 29 73 23 15 -5 8 -15 -37 -59 -50 -48 -54
-56 -54 -97 0 -25 -7 -72 -15 -104 -15 -58 -63 -170 -71 -163 -1 2 4 27 12 55
8 29 14 71 12 95 l-3 43 -105 0 c-87 0 -111 4 -140 20 l-35 20 105 6 c136 7
178 21 196 65 19 45 18 77 -4 104 -18 22 -22 22 -65 12 -25 -7 -65 -12 -88
-12 -42 0 -129 34 -129 50 0 15 84 22 148 11 99 -16 134 8 153 100 23 115 -37
179 -170 181 -34 0 -61 4 -61 9 0 14 72 29 136 29 68 0 74 5 74 64 0 87 -73
112 -270 93 -140 -14 -137 -11 -139 -107 -1 -73 6 -87 49 -94 20 -3 43 -13 50
-21 11 -13 9 -15 -13 -15 -47 0 -57 -22 -57 -123 0 -105 13 -136 58 -138 23 0
21 -2 -13 -13 -50 -15 -65 -43 -65 -122 l0 -61 41 -16 c43 -17 45 -37 4 -37
-13 0 -27 -4 -30 -10 -9 -15 -45 -12 -45 4 0 9 -7 12 -19 9 -27 -7 -34 11 -11
32 17 15 20 31 20 97 0 65 -3 81 -20 98 -26 26 -26 26 10 39 l30 10 0 92 c0
101 -16 143 -65 169 -30 16 -32 30 -4 30 41 0 63 103 34 159 -13 25 -21 29
-80 35 -170 17 -260 -27 -253 -126 l3 -43 75 -6 c85 -7 130 -17 130 -30 0 -5
-28 -9 -62 -9 -126 -1 -188 -58 -173 -159 16 -111 54 -139 162 -120 65 11 127
6 138 -12 10 -15 -75 -49 -123 -49 -24 0 -64 5 -89 12 -43 10 -47 10 -65 -12
-37 -46 -13 -129 44 -150 18 -7 83 -16 143 -19 l110 -7 -48 -23 c-42 -19 -61
-22 -140 -19 l-92 3 -3 -43 c-2 -24 4 -66 12 -95 8 -28 13 -53 11 -56 -7 -6
-56 105 -71 162 -8 29 -14 70 -14 92 0 48 -26 93 -75 131 -30 23 -34 29 -20
36 18 11 53 2 78 -20 16 -14 17 -13 17 22 0 28 -10 49 -41 89 -46 57 -89 141
-88 172 0 15 5 11 18 -15 11 -19 32 -48 47 -65 l29 -30 3 83 3 83 -50 55 c-47
51 -77 111 -69 136 2 6 14 -5 27 -25 22 -36 97 -107 113 -107 4 0 8 25 8 55 0
51 -6 64 -95 211 -52 86 -101 177 -109 203 -20 65 -27 109 -17 116 5 2 12 -11
16 -31 3 -21 22 -53 45 -77 21 -23 44 -58 52 -77 21 -50 93 -116 165 -152 142
-70 255 -42 313 77 17 35 23 71 27 160 3 63 9 113 12 109 3 -3 13 -58 23 -121z"/>
<path d="M4892 7292 l-24 -18 68 -42 c68 -41 69 -41 77 -19 4 12 15 29 23 38
14 15 11 18 -35 29 -28 7 -54 16 -57 21 -8 14 -27 10 -52 -9z"/>
<path d="M7056 7301 c-3 -5 -29 -14 -56 -21 -44 -11 -49 -14 -38 -28 7 -8 18
-26 23 -38 l10 -24 68 42 69 42 -24 18 c-25 19 -44 23 -52 9z"/>
</g>
</svg>
